# xmcd CD database file
#
# Track frame offsets:
#	150
#	13154
#	27888
#	40301
#	58617
#	70384
#	84757
#	97182
#	110392
#	124682
#	140784
#	150755
#	168542
#	182043
#	195135
#	214318
#
# Disc length: 3017 seconds
#
# Revision: 8
# Processed by: cddbd v1.5.2PL0 Copyright (c) Steve Scherf et al.
# Submitted via: CDex 1.79
#
DISCID=d60bc710
DTITLE=Various Artist - Best Of Country Songs - CD 1
DYEAR=2006
DGENRE=Country
TTITLE0=Kenny Rogers - Ruby, Don't Take Your Love To Town
TTITLE1=Glen Campbell - Rhinestone Cowboy
TTITLE2=Charlie Rich - The Most Beautiful Girl
TTITLE3=Randy Travis - Hard Rock Bottom Of Your Heart
TTITLE4=Dave Dudley - Six Days On The Road
TTITLE5=Tanya Tucker - What's Your Mama's Name, Child
TTITLE6=Dolly Parton - 9 To 5
TTITLE7=Lynn Anderson - Rose Garden
TTITLE8=Eddie Rabbitt - I Love A Rainy Night
TTITLE9=Billie Jo Spears - Blanket On The Ground
TTITLE10=Charley Pride - Is Anybody Goin' To San Antone
TTITLE11=Hank Williams Jr. - All My Rowdy Friends Are Coming Over Tonight
TTITLE12=Loretta Lynn - Coal Miner's Daughter
TTITLE13=Ray Stevens - Misty
TTITLE14=Kris Kristofferson - Me And Bobby McGee
TTITLE15=Wanda Jackson - Stand By Your Man
EXTD=YEAR: 2006
EXTT0=
EXTT1=
EXTT2=
EXTT3=
EXTT4=
EXTT5=
EXTT6=
EXTT7=
EXTT8=
EXTT9=
EXTT10=
EXTT11=
EXTT12=
EXTT13=
EXTT14=
EXTT15=
PLAYORDER=
